<svg width="30" height="30" viewBox="0 0 30 30" fill="none" xmlns="http://www.w3.org/2000/svg">
<path d="M25.4294 21.4454H23.3698C23.2292 21.4454 23.0973 21.5069 23.0094 21.6153C22.8044 21.8643 22.5846 22.1045 22.3532 22.3331C21.4066 23.2806 20.2853 24.0357 19.0514 24.5567C17.7731 25.0966 16.3991 25.3736 15.0114 25.3711C13.6081 25.3711 12.2487 25.0957 10.9714 24.5567C9.73745 24.0357 8.6162 23.2806 7.6696 22.3331C6.7213 21.3887 5.96515 20.2694 5.44303 19.0372C4.90104 17.7598 4.62858 16.4034 4.62858 15C4.62858 13.5967 4.90397 12.2403 5.44303 10.9629C5.96452 9.72954 6.71452 8.61919 7.6696 7.66704C8.62468 6.71489 9.73503 5.96489 10.9714 5.4434C12.2487 4.90434 13.6081 4.62895 15.0114 4.62895C16.4147 4.62895 17.7741 4.90141 19.0514 5.4434C20.2878 5.96489 21.3981 6.71489 22.3532 7.66704C22.5846 7.89848 22.8014 8.13872 23.0094 8.38481C23.0973 8.49321 23.2321 8.55473 23.3698 8.55473H25.4294C25.6139 8.55473 25.7282 8.34965 25.6257 8.19438C23.3786 4.70219 19.4469 2.39067 14.9792 2.40239C7.95964 2.41997 2.33171 8.11821 2.40202 15.129C2.47233 22.0284 8.09147 27.5977 15.0114 27.5977C19.4675 27.5977 23.3815 25.2891 25.6257 21.8057C25.7253 21.6504 25.6139 21.4454 25.4294 21.4454ZM28.0339 14.8155L23.8766 11.5342C23.7214 11.4112 23.4958 11.5225 23.4958 11.7188V13.9454H14.2966C14.1676 13.9454 14.0622 14.0508 14.0622 14.1797V15.8204C14.0622 15.9493 14.1676 16.0547 14.2966 16.0547H23.4958V18.2813C23.4958 18.4776 23.7243 18.5889 23.8766 18.4659L28.0339 15.1846C28.0619 15.1627 28.0845 15.1347 28.1001 15.1027C28.1157 15.0707 28.1238 15.0356 28.1238 15C28.1238 14.9645 28.1157 14.9294 28.1001 14.8974C28.0845 14.8654 28.0619 14.8374 28.0339 14.8155Z" fill="#D83232"/>
</svg>
