<svg width="40" height="41" viewBox="0 0 40 41" fill="none" xmlns="http://www.w3.org/2000/svg">
<rect y="0.5" width="40" height="40" rx="20" fill="#0970B8" fill-opacity="0.2"/>
<path d="M11.75 20.4998C11.7498 19.0515 12.1308 17.6287 12.8548 16.3743C13.5788 15.12 14.6203 14.0784 15.8745 13.3541C17.1287 12.6299 18.5514 12.2486 19.9997 12.2485C21.448 12.2485 22.8708 12.6297 24.125 13.3538C24.2972 13.4517 24.5011 13.4775 24.6922 13.4256C24.8833 13.3737 25.0462 13.2483 25.1452 13.0768C25.2442 12.9053 25.2714 12.7016 25.2208 12.5101C25.1702 12.3186 25.0459 12.155 24.875 12.0548C23.0163 10.9817 20.8554 10.5518 18.7275 10.8319C16.5996 11.112 14.6236 12.0865 13.1059 13.604C11.5883 15.1216 10.6137 17.0976 10.3335 19.2255C10.0532 21.3533 10.4829 23.5142 11.556 25.373C12.629 27.2318 14.2853 28.6846 16.2681 29.5061C18.2509 30.3276 20.4494 30.4719 22.5226 29.9166C24.5958 29.3613 26.4278 28.1374 27.7345 26.4348C29.0413 24.7323 29.7497 22.6461 29.75 20.4998C29.75 20.3009 29.671 20.1101 29.5303 19.9695C29.3897 19.8288 29.1989 19.7498 29 19.7498C28.8011 19.7498 28.6103 19.8288 28.4697 19.9695C28.329 20.1101 28.25 20.3009 28.25 20.4998C28.25 22.6878 27.3808 24.7863 25.8336 26.3334C24.2865 27.8806 22.1881 28.7498 20 28.7498C17.812 28.7498 15.7136 27.8806 14.1664 26.3334C12.6192 24.7863 11.75 22.6878 11.75 20.4998Z" fill="#0970B8"/>
<path d="M31.031 13.531C31.1007 13.4612 31.156 13.3785 31.1938 13.2873C31.2315 13.1962 31.2509 13.0986 31.2509 13C31.2509 12.9014 31.2315 12.8037 31.1938 12.7126C31.156 12.6215 31.1007 12.5387 31.031 12.469C30.9612 12.3992 30.8785 12.3439 30.7873 12.3062C30.6962 12.2684 30.5986 12.249 30.5 12.249C30.4014 12.249 30.3037 12.2684 30.2126 12.3062C30.1215 12.3439 30.0387 12.3992 29.969 12.469L20 22.4395L16.031 18.469C15.9612 18.3992 15.8785 18.3439 15.7873 18.3062C15.6962 18.2684 15.5986 18.249 15.5 18.249C15.4014 18.249 15.3037 18.2684 15.2126 18.3062C15.1215 18.3439 15.0387 18.3992 14.969 18.469C14.8992 18.5387 14.8439 18.6215 14.8062 18.7126C14.7684 18.8037 14.749 18.9014 14.749 19C14.749 19.0986 14.7684 19.1962 14.8062 19.2873C14.8439 19.3785 14.8992 19.4612 14.969 19.531L19.469 24.031C19.5386 24.1008 19.6214 24.1562 19.7125 24.194C19.8036 24.2318 19.9013 24.2513 20 24.2513C20.0986 24.2513 20.1963 24.2318 20.2874 24.194C20.3785 24.1562 20.4613 24.1008 20.531 24.031L31.031 13.531Z" fill="#0970B8"/>
</svg>
