<svg width="25" height="25" viewBox="0 0 25 25" fill="none" xmlns="http://www.w3.org/2000/svg">
<path d="M11.498 16.5L16.498 12.5L11.498 8.5V11.5H2.49805V13.5H11.498V16.5Z" fill="white"/>
<path d="M13.4988 3.49906C12.3163 3.49578 11.1449 3.72717 10.0525 4.17982C8.9601 4.63247 7.96837 5.29739 7.13477 6.13606L8.54877 7.55006C9.87077 6.22806 11.6288 5.49906 13.4988 5.49906C15.3688 5.49906 17.1268 6.22806 18.4488 7.55006C19.7708 8.87206 20.4998 10.6301 20.4998 12.5001C20.4998 14.3701 19.7708 16.1281 18.4488 17.4501C17.1268 18.7721 15.3688 19.5011 13.4988 19.5011C11.6288 19.5011 9.87077 18.7721 8.54877 17.4501L7.13477 18.8641C8.83377 20.5641 11.0938 21.5011 13.4988 21.5011C15.9038 21.5011 18.1638 20.5641 19.8628 18.8641C21.5628 17.1651 22.4998 14.9051 22.4998 12.5001C22.4998 10.0951 21.5628 7.83506 19.8628 6.13606C19.0292 5.29739 18.0374 4.63247 16.945 4.17982C15.8526 3.72717 14.6812 3.49578 13.4988 3.49906Z" fill="white"/>
</svg>
