<svg width="25" height="25" viewBox="0 0 25 25" fill="none" xmlns="http://www.w3.org/2000/svg">
<path d="M24.7916 5.32708C24.6822 4.88616 24.1305 4.73674 23.8092 5.05803L20.1783 8.68889L16.8639 8.13665L16.3116 4.82219L19.9425 1.19133C20.2657 0.868092 20.11 0.317311 19.6661 0.206959C17.3527 -0.366283 14.8053 0.251392 12.9972 2.05901C11.0616 3.99456 10.5289 6.80022 11.3346 9.24651L0.915161 19.6659C-0.305054 20.8862 -0.305054 22.8647 0.915161 24.0849C2.13538 25.3051 4.11389 25.3051 5.33411 24.0849L15.7448 13.6742C18.192 14.4902 20.9923 13.9516 22.9406 12.0033C24.7506 10.1933 25.3673 7.64202 24.7916 5.32708ZM3.12512 23.0468C2.47815 23.0468 1.95325 22.5219 1.95325 21.8749C1.95325 21.2275 2.47815 20.7031 3.12512 20.7031C3.77209 20.7031 4.297 21.2275 4.297 21.8749C4.297 22.5219 3.77209 23.0468 3.12512 23.0468Z" fill="white"/>
</svg>
