<svg width="40" height="41" viewBox="0 0 40 41" fill="none" xmlns="http://www.w3.org/2000/svg">
<rect y="0.5" width="40" height="40" rx="20" fill="#F5A623" fill-opacity="0.2"/>
<path d="M14 18.1C10.9588 18.1 8.46876 20.2937 8.00376 23.1512C7.97376 23.3312 8.12751 23.5 8.31501 23.5H19.6888C19.8763 23.5 20.03 23.3312 20 23.1512C19.5313 20.2937 17.0413 18.1 14 18.1ZM19.685 24.7H8.31501C8.12751 24.7 7.97376 24.8687 8.00376 25.0487C8.46876 27.9062 10.9588 30.1 14 30.1C17.0413 30.1 19.5313 27.9062 19.9963 25.0487C20.0263 24.8687 19.8725 24.7 19.685 24.7ZM30.2525 12.6475C28.1338 10.5287 24.845 10.345 22.4938 12.0475C22.3438 12.1562 22.3325 12.3812 22.4638 12.5087L30.3875 20.4362C30.5188 20.5675 30.7438 20.5562 30.8488 20.4062C32.555 18.055 32.3713 14.7662 30.2525 12.6475ZM21.6125 13.3637C21.4813 13.2325 21.2563 13.2437 21.1513 13.3937C19.4488 15.745 19.6325 19.0337 21.7475 21.1525C23.8663 23.2712 27.155 23.455 29.5063 21.7487C29.6563 21.64 29.6675 21.415 29.5363 21.2875L21.6125 13.3637Z" fill="#F5A623"/>
</svg>
